# xmcd
#
# Track frame offsets:
# 150
# 16844
# 28898
# 42004
# 56467
# 68885
# 81398
# 94735
# 111987
# 122599
# 133515
# 143638
# 160414
# 172298
#
# Disc length: 2448 seconds
#
#
# Revision: 0
# Processed by: cddbd v1.5.2PL0 Copyright (c) Steve Scherf et al.
# Submitted via: FreeRIP 2.80 
#
DISCID=c0098e0e
DTITLE=Saudades do Sertao
DYEAR=2004
DGENRE=Country
TTITLE0=Teodoro e Sampaio - Garanhao da Madrugada
TTITLE1=Abel and Caim - Rio de Lagrimas
TTITLE2=Mensageiro and Mexicano - Ebrio de Amor
TTITLE3=Cascatinha and Inhana - Meu Primeiro Amor
TTITLE4=Cezar e Paulinho - Cafe Pilao
TTITLE5=Eli Silva and Ze Goiano - Estranho no Ninho
TTITLE6=Joao Mulato and Pardinho - De novo em teus Bracos
TTITLE7=Tonico and Tinoco - Tristeza do Jeca
TTITLE8=Barrerito - Andorinha Mensageiro
TTITLE9=Iridio and Irineu - Meu Coracao nao Aguenta
TTITLE10=Almir Sater - Chalana
TTITLE11=Peao Carreiro and Ze Paulo - Porta do Mundo
TTITLE12=As Marcianas - Falsos Amigos
TTITLE13=Mario Zan - Bailinho da Roca
EXTD=
EXTT0=
EXTT1=
EXTT2=
EXTT3=
EXTT4=
EXTT5=
EXTT6=
EXTT7=
EXTT8=
EXTT9=
EXTT10=
EXTT11=
EXTT12=
EXTT13=
PLAYORDER=
